<svg xmlns="http://www.w3.org/2000/svg" viewBox="0 0 900 560" role="img" aria-labelledby="title desc">
  <title id="title">Clean sneaker illustration</title>
  <desc id="desc">A premium white sneaker with blue detailing, inspired by before and after cleaning photos.</desc>
  <defs>
    <linearGradient id="sole" x1="106" y1="393" x2="789" y2="393" gradientUnits="userSpaceOnUse">
      <stop stop-color="#BDD8E9"/>
      <stop offset=".53" stop-color="#FFFFFF"/>
      <stop offset="1" stop-color="#7BBDE8"/>
    </linearGradient>
    <linearGradient id="upper" x1="190" y1="137" x2="731" y2="340" gradientUnits="userSpaceOnUse">
      <stop stop-color="#FFFFFF"/>
      <stop offset=".61" stop-color="#F4FAFD"/>
      <stop offset="1" stop-color="#CFE4F0"/>
    </linearGradient>
    <filter id="shadow" x="0" y="0" width="900" height="560" filterUnits="userSpaceOnUse" color-interpolation-filters="sRGB">
      <feDropShadow dx="0" dy="28" stdDeviation="20" flood-color="#001D39" flood-opacity=".28"/>
    </filter>
  </defs>
  <g filter="url(#shadow)">
    <path d="M111 363c42 28 83 42 124 42h417c69 0 119 16 151 48 8 8 6 22-5 27-34 14-81 22-142 22H254c-78 0-130-21-155-64-14-25-9-55 12-75Z" fill="url(#sole)"/>
    <path d="M154 346c66 26 137 33 213 22 43-6 81-20 113-41 64-43 112-83 144-119 15-17 42-14 53 7 20 37 51 67 93 91 27 15 45 39 52 70-97-7-188-8-274-4-109 5-209 4-300-3-48-4-79-11-94-23Z" fill="url(#upper)"/>
    <path d="M253 183c43-30 94-46 152-49 60-3 121 11 184 42 14 7 18 25 7 37-30 32-68 65-114 98-42 30-89 46-141 49-61 4-121-2-180-18 7-62 37-115 92-159Z" fill="#F9FCFE"/>
    <path d="M336 195c43-14 89-13 139 3 16 5 20 25 7 36-38 31-81 53-130 66-32 9-67 10-103 4 12-52 41-88 87-109Z" fill="#BDD8E9"/>
    <path d="M260 215c18 22 47 41 87 56 38 14 77 21 117 21" fill="none" stroke="#0A4174" stroke-width="18" stroke-linecap="round"/>
    <path d="M633 213c12 47 47 86 105 118" fill="none" stroke="#0A4174" stroke-width="22" stroke-linecap="round"/>
    <path d="M185 403c124 18 271 22 441 13 72-4 129 0 171 13" fill="none" stroke="#001D39" stroke-width="12" stroke-linecap="round" opacity=".72"/>
    <path d="M222 454h503" stroke="#49769F" stroke-width="14" stroke-linecap="round" opacity=".68"/>
    <g fill="none" stroke="#001D39" stroke-width="9" stroke-linecap="round" opacity=".66">
      <path d="M326 188l52 62"/>
      <path d="M382 177l50 59"/>
      <path d="M438 181l44 51"/>
      <path d="M287 229l59-45"/>
      <path d="M328 258l70-54"/>
    </g>
    <path d="M135 330c14-34 34-52 61-54 22-1 39 9 50 31-23 34-53 49-92 46-17-2-23-9-19-23Z" fill="#001D39"/>
    <path d="M714 308c33 9 60 26 80 52" stroke="#001D39" stroke-width="16" stroke-linecap="round" opacity=".82"/>
    <circle cx="174" cy="356" r="10" fill="#C46A3A"/>
    <circle cx="216" cy="366" r="8" fill="#C46A3A"/>
    <circle cx="633" cy="371" r="8" fill="#6EA2B3"/>
  </g>
</svg>
