<svg xmlns="http://www.w3.org/2000/svg" viewBox="0 0 600 800" role="img" aria-labelledby="title desc">
  <title id="title">Final reveal video placeholder</title>
  <desc id="desc">A clean sneaker reveal on a blue background.</desc>
  <rect width="600" height="800" fill="#001D39"/>
  <circle cx="300" cy="356" r="220" fill="#0A4174"/>
  <circle cx="360" cy="300" r="170" fill="#49769F"/>
  <path d="M81 493c62 29 147 39 254 31 40-3 76-14 107-33 31 28 68 47 113 55 15 3 19 24 5 32-34 20-91 30-171 30H122c-46 0-75-17-88-51-10-27 5-82 47-64Z" fill="#F8FCFE"/>
  <path d="M128 444c58-57 123-84 194-81 52 2 98 20 139 52-39 43-90 69-152 78-68 9-128-7-181-49Z" fill="#FFFFFF"/>
  <path d="M179 471c62 28 126 32 190 11" stroke="#0A4174" stroke-width="18" stroke-linecap="round"/>
  <path d="M151 551h359" stroke="#7BBDE8" stroke-width="18" stroke-linecap="round"/>
  <g fill="#BDD8E9">
    <circle cx="159" cy="219" r="8"/>
    <circle cx="466" cy="185" r="11"/>
    <circle cx="493" cy="376" r="7"/>
    <circle cx="103" cy="371" r="10"/>
  </g>
</svg>
